<svg width="42" height="42" viewBox="0 0 42 42" fill="none" xmlns="http://www.w3.org/2000/svg">
<path d="M39.1297 10.8368C38.5142 9.79407 37.1653 9.47456 36.111 10.0531C35.0568 10.6619 34.7032 11.9961 35.3187 13.0388C36.8139 15.5323 37.604 18.3734 37.604 21.2727C37.604 30.2299 30.2177 37.5074 21.1901 37.5074C19.7255 37.5074 18.2893 37.3325 16.9404 36.9569C16.6479 34.7829 14.7708 33.1012 12.5138 33.1012C10.0234 33.1012 8 35.1024 8 37.5657C8 40.029 10.0234 42 12.5138 42C13.5681 42 14.5372 41.6222 15.299 41.0134C17.1739 41.5639 19.1689 41.8532 21.1901 41.8532C32.6493 41.8532 42 32.6348 42 21.2706C42 17.5897 41.0025 13.9931 39.1276 10.8346L39.1297 10.8368Z" fill="#E9ECFC"/>
<path d="M20.8802 10.7442C17.3393 10.7442 14.1796 12.3549 12.1596 14.8435C10.4033 14.8709 9 16.2289 9 17.9259C9 18.745 9.32249 19.5092 9.87815 20.0461C9.79099 20.5262 9.76049 21.0083 9.76049 21.4884C9.76049 27.4258 14.7353 32.2326 20.8802 32.2326C27.0252 32.2326 32 27.4258 32 21.4884C32 15.551 26.9969 10.7442 20.8802 10.7442ZM20.8802 29.4049C16.3456 29.4049 12.687 25.8698 12.687 21.4884C12.687 21.3178 12.687 21.1199 12.7153 20.9515C14.2363 20.7262 15.4064 19.4524 15.4064 17.9259C15.4064 17.2753 15.2016 16.6542 14.8203 16.1721C16.3129 14.5888 18.4789 13.5718 20.8781 13.5718C25.3844 13.5718 29.0713 17.1343 29.0713 21.4884C29.0713 25.8425 25.3844 29.4049 20.8781 29.4049H20.8802Z" fill="#E9ECFC"/>
<path d="M4.40528 21.1264C4.40528 12.4107 11.7751 5.32939 20.8458 5.32939C21.6088 5.32939 22.4024 5.38611 23.1348 5.49954C23.6639 7.30402 25.3954 8.65895 27.4788 8.65895C29.9733 8.65895 32 6.71163 32 4.34418C32 1.97673 29.9733 0 27.4788 0C26.1868 0 25.0128 0.53567 24.1908 1.38224C23.0758 1.18478 21.9586 1.10075 20.8436 1.10075C9.33524 1.10075 0 10.1 0 21.1285C0 24.2879 0.734577 27.3066 2.17312 30.0983C2.58414 30.8315 3.34714 31.2558 4.16916 31.2558C4.49273 31.2558 4.8141 31.1991 5.13766 31.031C6.22423 30.5227 6.66366 29.2539 6.13678 28.2098C4.96277 26.0105 4.40528 23.6115 4.40528 21.1285V21.1264Z" fill="#E9ECFC"/>
<path d="M21 18.5581C21.2004 20.0885 22.4332 21.2946 24 21.4884C22.4332 21.6841 21.1984 22.8882 21 24.4186C20.7996 22.8882 19.5668 21.6821 18 21.4884C19.5668 21.2926 20.8016 20.0885 21 18.5581Z" fill="#E9ECFC"/>
</svg>
